<svg id="Layer_1" data-name="Layer 1" xmlns="http://www.w3.org/2000/svg" viewBox="0 0 300.05 292"><defs><style>.cls-1{fill:#fff;}</style></defs><path class="cls-1" d="M198,292c-5.8-4.43-7.42-10.2-7.21-17.46.4-13.81.07-27.65-.47-41.45-.38-9.52-3.85-17.87-13.24-24.08,4.89-.76,8.74-1.12,12.48-2,7.61-1.73,15.34-3.2,22.71-5.71C230.73,195,242.21,182,247,163.14c3.57-14.16,5-28.54,3-43.1a61.74,61.74,0,0,0-15-33.18c-2.13-2.41-2.51-4.76-2.4-8.06.31-9.41.46-18.95-.78-28.24-1.06-8-4.11-9.72-11.84-7.19a154.38,154.38,0,0,0-26.06,11.15,24,24,0,0,1-16.71,2.9c-22-3.46-44.1-3.6-65.93,2.23-1.69.46-4.15-.5-5.78-1.53-10.37-6.5-20.9-12.48-33.18-14.55-7.12-1.2-7.82-.84-9.93,6-3.4,11.1-3.29,22.29-1,33.6.37,1.8,0,4.49-1.21,5.78-14.06,15.61-16,34.32-13.65,53.91a102.35,102.35,0,0,0,5.24,22.78c8.74,23.91,28.05,34.88,51.48,40.22,5.82,1.33,11.76,2.11,16.6,3-3.1,6-6.18,12.28-9.55,18.37a6.94,6.94,0,0,1-3.82,2.77C95,233.57,78.6,234.88,68.63,219.67A73.72,73.72,0,0,0,58.55,208a17.49,17.49,0,0,0-16-5.1,5.62,5.62,0,0,0-3.48,2.1c-.33.51.77,2.59,1.71,3.14,10.11,6,15.55,15.48,20.4,25.78C66.7,245.63,76.8,251.32,89.61,252c6.12.31,12.28.05,18.89.05a13.58,13.58,0,0,1,.39,2.53c.08,8.16.41,16.34,0,24.48-.16,3.07-1.67,6.31-3.35,9-1.94,3.09-4.82,3.68-8.64,2.16C57.46,274.54,29.1,247.45,12,208.64A136.68,136.68,0,0,1,.84,164.29,34.59,34.59,0,0,0,0,160V140c.42-3.09.83-6.18,1.25-9.26A149.74,149.74,0,0,1,115,4.45c9.17-2.2,18.67-3,28-4.45h14a38.31,38.31,0,0,0,4.38.8C224.76,5.28,279,50.16,295,111.66c2.24,8.63,3.39,17.55,5.05,26.34v24a16.93,16.93,0,0,0-.81,2.8c-6.85,56.59-36.4,96.89-87.42,121.75-4.16,2-8.51,3.64-12.77,5.45Z"/></svg>