<svg id="Layer_1" data-name="Layer 1" xmlns="http://www.w3.org/2000/svg" viewBox="0 0 384 384"><defs><style>.cls-1{fill:#fff;}</style></defs><path class="cls-1" d="M193.57,2.75C88.38,2.68,3.23,87.48,3.16,192.36,3.1,296.62,88.49,381.86,193.28,382.14c104.12.28,189.39-85.24,189.32-189.87C382.53,87.34,298.23,2.83,193.57,2.75ZM145.89,284.31H98.07v-166h47.82ZM123.35,107.73c-12.53,0-21.67-9.37-21.67-22.22,0-12.19,9.48-22.22,21-22.28C135,63.17,146,73.61,146.09,85.4,146.2,97.85,136.15,107.73,123.35,107.73ZM311.56,282.19c0,.62-.08,1.24-.15,2.17H264.24v-4.57q0-48,0-96.06A57.06,57.06,0,0,0,263.14,172c-1.13-5.21-4.51-8.69-9.77-10.25-12.73-3.78-28,2.39-34.08,14.16a20.12,20.12,0,0,0-2.18,8.72c-.15,31.64-.09,63.28-.09,94.92v4.75H170V118.34h46.94v15.33c1.92-1.17,3.16-1.91,4.38-2.68,12.22-7.65,25.39-12.28,39.91-12.82,22.3-.83,39.7,12,46.27,35.1a95,95,0,0,1,3.84,24.45C311.76,212.54,311.55,247.37,311.56,282.19Z"/></svg>