<svg id="Layer_2" data-name="Layer 2" xmlns="http://www.w3.org/2000/svg" viewBox="0 0 2599.85 2316.72"><defs><style>.cls-1{fill:#00d8ff;}.cls-2{fill:none;stroke:#00d8ff;stroke-miterlimit:10;stroke-width:144.75px;}</style></defs><circle class="cls-1" cx="1809.34" cy="1807.14" r="229.05" transform="translate(-1257.27 1157.76) rotate(-45)"/><path class="cls-2" d="M1809.34,1341.47c307.46,0,593.13,44.13,808.47,118.24,259.48,89.31,419,224.73,419,347.35,0,127.77-169.1,271.66-447.72,363.93-210.66,69.79-487.92,106.28-779.79,106.28-299.29,0-582.61-34.22-795.69-107-269.54-92.12-431.9-237.83-431.9-363.18,0-121.64,152.37-256,408.21-345.16,216.18-75.31,508.89-120.43,819.38-120.43Z" transform="translate(-509.38 -650.94)"/><path class="cls-2" d="M1404,1575.67c153.58-266.36,334.56-491.78,506.39-641.27,207-180.15,404-250.7,510.24-189.46,110.67,63.81,150.86,282.18,91.59,569.74-44.81,217.39-151.69,475.73-297.55,728.62-149.49,259.25-320.71,487.61-490.18,635.82-214.44,187.49-421.84,255.31-530.38,192.72-105.37-60.79-145.64-259.86-95.15-526.07,42.69-225.11,149.87-501.16,305-770.1Z" transform="translate(-509.38 -650.94)"/><path class="cls-2" d="M1404.38,2043.83c-154-266.14-259-535.45-302.7-759-52.68-269.32-15.44-475.28,90.68-536.67,110.59-64,319.81,10.22,539.32,205.13,166,147.38,336.38,369,482.62,621.67,149.94,259,262.35,521.37,306,742.17,55.33,279.46,10.52,493-97.94,555.74-105.29,60.93-297.86-3.56-503.29-180.31-173.49-149.34-359.16-380.05-514.71-648.76Z" transform="translate(-509.38 -650.94)"/></svg>